<svg width="299" height="75" viewBox="0 0 299 75" fill="none" xmlns="http://www.w3.org/2000/svg">
<path d="M3.486 41V11.6H9.114L21.63 32.348H18.648L30.954 11.6H36.54L36.624 41H30.24L30.198 21.386H31.374L21.546 37.892H18.48L8.442 21.386H9.87V41H3.486ZM56.9973 41V36.59L56.5773 35.624V27.728C56.5773 26.328 56.1433 25.236 55.2753 24.452C54.4353 23.668 53.1333 23.276 51.3693 23.276C50.1653 23.276 48.9753 23.472 47.7993 23.864C46.6513 24.228 45.6713 24.732 44.8593 25.376L42.5073 20.798C43.7393 19.93 45.2233 19.258 46.9593 18.782C48.6953 18.306 50.4593 18.068 52.2513 18.068C55.6953 18.068 58.3693 18.88 60.2733 20.504C62.1773 22.128 63.1293 24.662 63.1293 28.106V41H56.9973ZM50.1093 41.336C48.3453 41.336 46.8333 41.042 45.5733 40.454C44.3133 39.838 43.3473 39.012 42.6753 37.976C42.0033 36.94 41.6673 35.778 41.6673 34.49C41.6673 33.146 41.9893 31.97 42.6333 30.962C43.3053 29.954 44.3553 29.17 45.7833 28.61C47.2113 28.022 49.0733 27.728 51.3693 27.728H57.3753V31.55H52.0833C50.5433 31.55 49.4793 31.802 48.8913 32.306C48.3313 32.81 48.0513 33.44 48.0513 34.196C48.0513 35.036 48.3733 35.708 49.0173 36.212C49.6893 36.688 50.5993 36.926 51.7473 36.926C52.8393 36.926 53.8193 36.674 54.6873 36.17C55.5553 35.638 56.1853 34.868 56.5773 33.86L57.5853 36.884C57.1093 38.34 56.2413 39.446 54.9813 40.202C53.7213 40.958 52.0973 41.336 50.1093 41.336ZM82.4152 41.336C80.5112 41.336 78.8452 40.916 77.4172 40.076C75.9892 39.236 74.8692 37.962 74.0572 36.254C73.2732 34.518 72.8812 32.334 72.8812 29.702C72.8812 27.042 73.2592 24.858 74.0152 23.15C74.7712 21.442 75.8632 20.168 77.2912 19.328C78.7192 18.488 80.4272 18.068 82.4152 18.068C84.5432 18.068 86.4472 18.558 88.1272 19.538C89.8352 20.49 91.1792 21.834 92.1592 23.57C93.1672 25.306 93.6712 27.35 93.6712 29.702C93.6712 32.082 93.1672 34.14 92.1592 35.876C91.1792 37.612 89.8352 38.956 88.1272 39.908C86.4472 40.86 84.5432 41.336 82.4152 41.336ZM69.0592 49.148V18.404H75.3172V23.024L75.1912 29.744L75.6112 36.422V49.148H69.0592ZM81.2812 35.96C82.3732 35.96 83.3392 35.708 84.1792 35.204C85.0472 34.7 85.7332 33.986 86.2372 33.062C86.7692 32.11 87.0352 30.99 87.0352 29.702C87.0352 28.386 86.7692 27.266 86.2372 26.342C85.7332 25.418 85.0472 24.704 84.1792 24.2C83.3392 23.696 82.3732 23.444 81.2812 23.444C80.1892 23.444 79.2092 23.696 78.3412 24.2C77.4732 24.704 76.7872 25.418 76.2832 26.342C75.7792 27.266 75.5272 28.386 75.5272 29.702C75.5272 30.99 75.7792 32.11 76.2832 33.062C76.7872 33.986 77.4732 34.7 78.3412 35.204C79.2092 35.708 80.1892 35.96 81.2812 35.96ZM98.0572 41V9.836H104.609V41H98.0572ZM121.904 41.336C119.328 41.336 117.06 40.832 115.1 39.824C113.168 38.816 111.67 37.444 110.606 35.708C109.542 33.944 109.01 31.942 109.01 29.702C109.01 27.434 109.528 25.432 110.564 23.696C111.628 21.932 113.07 20.56 114.89 19.58C116.71 18.572 118.768 18.068 121.064 18.068C123.276 18.068 125.264 18.544 127.028 19.496C128.82 20.42 130.234 21.764 131.27 23.528C132.306 25.264 132.824 27.35 132.824 29.786C132.824 30.038 132.81 30.332 132.782 30.668C132.754 30.976 132.726 31.27 132.698 31.55H114.344V27.728H129.254L126.734 28.862C126.734 27.686 126.496 26.664 126.02 25.796C125.544 24.928 124.886 24.256 124.046 23.78C123.206 23.276 122.226 23.024 121.106 23.024C119.986 23.024 118.992 23.276 118.124 23.78C117.284 24.256 116.626 24.942 116.15 25.838C115.674 26.706 115.436 27.742 115.436 28.946V29.954C115.436 31.186 115.702 32.278 116.234 33.23C116.794 34.154 117.564 34.868 118.544 35.372C119.552 35.848 120.728 36.086 122.072 36.086C123.276 36.086 124.326 35.904 125.222 35.54C126.146 35.176 126.986 34.63 127.742 33.902L131.228 37.682C130.192 38.858 128.89 39.768 127.322 40.412C125.754 41.028 123.948 41.336 121.904 41.336ZM151.844 41.504C149.52 41.504 147.378 41.14 145.418 40.412C143.486 39.656 141.792 38.592 140.336 37.22C138.908 35.848 137.788 34.238 136.976 32.39C136.192 30.542 135.8 28.512 135.8 26.3C135.8 24.088 136.192 22.058 136.976 20.21C137.788 18.362 138.922 16.752 140.378 15.38C141.834 14.008 143.542 12.958 145.502 12.23C147.462 11.474 149.618 11.096 151.97 11.096C154.574 11.096 156.912 11.53 158.984 12.398C161.084 13.266 162.848 14.526 164.276 16.178L159.908 20.21C158.844 19.09 157.682 18.264 156.422 17.732C155.162 17.172 153.79 16.892 152.306 16.892C150.878 16.892 149.576 17.116 148.4 17.564C147.224 18.012 146.202 18.656 145.334 19.496C144.494 20.336 143.836 21.33 143.36 22.478C142.912 23.626 142.688 24.9 142.688 26.3C142.688 27.672 142.912 28.932 143.36 30.08C143.836 31.228 144.494 32.236 145.334 33.104C146.202 33.944 147.21 34.588 148.358 35.036C149.534 35.484 150.822 35.708 152.222 35.708C153.566 35.708 154.868 35.498 156.128 35.078C157.416 34.63 158.662 33.888 159.866 32.852L163.73 37.766C162.134 38.97 160.272 39.894 158.144 40.538C156.044 41.182 153.944 41.504 151.844 41.504ZM157.514 36.884V25.838H163.73V37.766L157.514 36.884ZM169.588 41V18.404H175.846V24.788L174.964 22.94C175.636 21.344 176.714 20.14 178.198 19.328C179.682 18.488 181.488 18.068 183.616 18.068V24.116C183.336 24.088 183.084 24.074 182.86 24.074C182.636 24.046 182.398 24.032 182.146 24.032C180.354 24.032 178.898 24.55 177.778 25.586C176.686 26.594 176.14 28.176 176.14 30.332V41H169.588ZM198.1 41.336C195.692 41.336 193.55 40.832 191.674 39.824C189.826 38.816 188.356 37.444 187.264 35.708C186.2 33.944 185.668 31.942 185.668 29.702C185.668 27.434 186.2 25.432 187.264 23.696C188.356 21.932 189.826 20.56 191.674 19.58C193.55 18.572 195.692 18.068 198.1 18.068C200.48 18.068 202.608 18.572 204.484 19.58C206.36 20.56 207.83 21.918 208.894 23.654C209.958 25.39 210.49 27.406 210.49 29.702C210.49 31.942 209.958 33.944 208.894 35.708C207.83 37.444 206.36 38.816 204.484 39.824C202.608 40.832 200.48 41.336 198.1 41.336ZM198.1 35.96C199.192 35.96 200.172 35.708 201.04 35.204C201.908 34.7 202.594 33.986 203.098 33.062C203.602 32.11 203.854 30.99 203.854 29.702C203.854 28.386 203.602 27.266 203.098 26.342C202.594 25.418 201.908 24.704 201.04 24.2C200.172 23.696 199.192 23.444 198.1 23.444C197.008 23.444 196.028 23.696 195.16 24.2C194.292 24.704 193.592 25.418 193.06 26.342C192.556 27.266 192.304 28.386 192.304 29.702C192.304 30.99 192.556 32.11 193.06 33.062C193.592 33.986 194.292 34.7 195.16 35.204C196.028 35.708 197.008 35.96 198.1 35.96ZM219.42 41L211.272 18.404H217.446L224.208 37.85H221.268L228.324 18.404H233.868L240.714 37.85H237.774L244.746 18.404H250.542L242.352 41H236.01L230.004 24.326H231.936L225.72 41H219.42ZM263.444 41.336C260.784 41.336 258.712 40.664 257.228 39.32C255.744 37.948 255.002 35.918 255.002 33.23V13.406H261.554V33.146C261.554 34.098 261.806 34.84 262.31 35.372C262.814 35.876 263.5 36.128 264.368 36.128C265.404 36.128 266.286 35.848 267.014 35.288L268.778 39.908C268.106 40.384 267.294 40.748 266.342 41C265.418 41.224 264.452 41.336 263.444 41.336ZM251.516 23.948V18.908H267.182V23.948H251.516ZM286.19 18.068C287.982 18.068 289.578 18.432 290.978 19.16C292.406 19.86 293.526 20.952 294.338 22.436C295.15 23.892 295.556 25.768 295.556 28.064V41H289.004V29.072C289.004 27.252 288.598 25.908 287.786 25.04C287.002 24.172 285.882 23.738 284.426 23.738C283.39 23.738 282.452 23.962 281.612 24.41C280.8 24.83 280.156 25.488 279.68 26.384C279.232 27.28 279.008 28.428 279.008 29.828V41H272.456V9.836H279.008V24.662L277.538 22.772C278.35 21.26 279.512 20.098 281.024 19.286C282.536 18.474 284.258 18.068 286.19 18.068Z" fill="white"/>
<path d="M2.1 70V56H8C9.49333 56 10.8067 56.2933 11.94 56.88C13.0867 57.4667 13.9733 58.2867 14.6 59.34C15.24 60.3933 15.56 61.6133 15.56 63C15.56 64.3867 15.24 65.6067 14.6 66.66C13.9733 67.7133 13.0867 68.5333 11.94 69.12C10.8067 69.7067 9.49333 70 8 70H2.1ZM4.1 68.26H7.88C9.04 68.26 10.04 68.04 10.88 67.6C11.7333 67.16 12.3933 66.5467 12.86 65.76C13.3267 64.96 13.56 64.04 13.56 63C13.56 61.9467 13.3267 61.0267 12.86 60.24C12.3933 59.4533 11.7333 58.84 10.88 58.4C10.04 57.96 9.04 57.74 7.88 57.74H4.1V68.26ZM21.6234 70V56H23.6234V70H21.6234ZM37.1348 70.16C36.0548 70.16 35.0615 69.9867 34.1548 69.64C33.2482 69.28 32.4615 68.78 31.7948 68.14C31.1282 67.4867 30.6082 66.7267 30.2348 65.86C29.8615 64.9933 29.6748 64.04 29.6748 63C29.6748 61.96 29.8615 61.0067 30.2348 60.14C30.6082 59.2733 31.1282 58.52 31.7948 57.88C32.4748 57.2267 33.2682 56.7267 34.1748 56.38C35.0815 56.02 36.0815 55.84 37.1748 55.84C38.2815 55.84 39.2948 56.02 40.2148 56.38C41.1348 56.74 41.9148 57.28 42.5548 58L41.3148 59.24C40.7415 58.68 40.1148 58.2733 39.4348 58.02C38.7682 57.7533 38.0415 57.62 37.2548 57.62C36.4548 57.62 35.7082 57.7533 35.0148 58.02C34.3348 58.2867 33.7415 58.66 33.2348 59.14C32.7415 59.62 32.3548 60.1933 32.0748 60.86C31.8082 61.5133 31.6748 62.2267 31.6748 63C31.6748 63.76 31.8082 64.4733 32.0748 65.14C32.3548 65.7933 32.7415 66.3667 33.2348 66.86C33.7415 67.34 34.3348 67.7133 35.0148 67.98C35.6948 68.2467 36.4348 68.38 37.2348 68.38C37.9815 68.38 38.6948 68.2667 39.3748 68.04C40.0682 67.8 40.7082 67.4067 41.2948 66.86L42.4348 68.38C41.7415 68.9667 40.9282 69.4133 39.9948 69.72C39.0748 70.0133 38.1215 70.16 37.1348 70.16ZM40.5148 68.12V62.92H42.4348V68.38L40.5148 68.12ZM49.2641 70V56H51.2641V70H49.2641ZM61.2355 70V57.74H56.4355V56H68.0155V57.74H63.2155V70H61.2355ZM70.3706 70L76.7106 56H78.6906L85.0506 70H82.9506L77.2906 57.12H78.0906L72.4306 70H70.3706ZM73.0706 66.5L73.6106 64.9H81.4906L82.0706 66.5H73.0706ZM90.1391 70V56H92.1391V68.26H99.7191V70H90.1391Z" fill="white"/>
</svg>
